<?xml version="1.0" encoding="utf-8"?>
<!-- Generator: Adobe Illustrator 21.0.0, SVG Export Plug-In . SVG Version: 6.00 Build 0)  -->
<svg version="1.1" id="Layer_1" xmlns="http://www.w3.org/2000/svg" xmlns:xlink="http://www.w3.org/1999/xlink" x="0px" y="0px"
	 viewBox="0 0 321.7 78.3" enable-background="new 0 0 321.7 78.3" xml:space="preserve">
<g>
	<g>
		<g>
			<path fill="#001588" d="M8.3,68.7l-0.6,0.6c-0.5-0.5-1-0.7-1.5-0.7c-0.3,0-0.6,0.1-0.8,0.3C5.1,69.1,5,69.4,5,69.6
				c0,0.2,0.1,0.5,0.3,0.7c0.2,0.2,0.6,0.5,1.2,0.8c0.7,0.4,1.2,0.7,1.5,1.1c0.3,0.3,0.4,0.7,0.4,1.2c0,0.6-0.2,1.1-0.6,1.6
				c-0.4,0.4-1,0.6-1.6,0.6c-0.4,0-0.8-0.1-1.2-0.3c-0.4-0.2-0.7-0.4-1-0.8l0.6-0.7c0.5,0.6,1,0.8,1.6,0.8c0.4,0,0.7-0.1,1-0.4
				c0.3-0.2,0.4-0.5,0.4-0.9c0-0.3-0.1-0.5-0.3-0.7c-0.2-0.2-0.6-0.5-1.2-0.8c-0.7-0.3-1.1-0.7-1.4-1c-0.2-0.3-0.4-0.7-0.4-1.2
				c0-0.6,0.2-1,0.6-1.4c0.4-0.4,0.9-0.6,1.5-0.6C6.9,67.7,7.6,68,8.3,68.7"/>
			<path fill="#001588" d="M10.6,64.8c0.2,0,0.4,0.1,0.6,0.2c0.2,0.2,0.2,0.3,0.2,0.6c0,0.2-0.1,0.4-0.2,0.6
				c-0.2,0.2-0.3,0.2-0.6,0.2c-0.2,0-0.4-0.1-0.6-0.2c-0.2-0.2-0.2-0.3-0.2-0.6c0-0.2,0.1-0.4,0.2-0.6
				C10.2,64.9,10.4,64.8,10.6,64.8 M10.2,67.9h1v7.4h-1V67.9z"/>
			<path fill="#001588" d="M13.4,67.9h1v1.3c0.3-0.5,0.7-0.8,1-1c0.5-0.3,1-0.4,1.5-0.4c0.4,0,0.7,0.1,1,0.2
				c0.3,0.1,0.6,0.3,0.8,0.6c0.2,0.2,0.4,0.6,0.5,1c0.3-0.6,0.7-1,1.2-1.3c0.5-0.3,1-0.5,1.5-0.5c0.5,0,1,0.1,1.4,0.4
				c0.4,0.3,0.7,0.6,0.9,1.1c0.2,0.5,0.3,1.2,0.3,2.1v4.1h-1v-4.1c0-0.8-0.1-1.3-0.2-1.6c-0.1-0.3-0.3-0.5-0.6-0.7
				c-0.3-0.2-0.6-0.3-1-0.3c-0.5,0-0.9,0.1-1.3,0.4c-0.4,0.3-0.7,0.6-0.8,1.1c-0.2,0.5-0.3,1.2-0.3,2.3v2.9h-1v-3.8
				c0-0.9-0.1-1.5-0.2-1.8c-0.1-0.3-0.3-0.6-0.6-0.8c-0.3-0.2-0.6-0.3-1-0.3c-0.4,0-0.9,0.1-1.2,0.4c-0.4,0.3-0.7,0.6-0.9,1.1
				c-0.2,0.5-0.3,1.1-0.3,2.1v3.2h-1V67.9z"/>
			<path fill="#001588" d="M27,67.9h1v1.4c0.4-0.5,0.8-0.9,1.3-1.2c0.5-0.3,1-0.4,1.6-0.4c1.1,0,2,0.4,2.7,1.1
				c0.8,0.8,1.1,1.7,1.1,2.7c0,1.1-0.4,2-1.1,2.8c-0.7,0.8-1.6,1.1-2.7,1.1c-0.6,0-1.1-0.1-1.6-0.4c-0.5-0.2-0.9-0.6-1.3-1.1v4h-1
				V67.9z M30.8,68.6c-0.8,0-1.5,0.3-2.1,0.9c-0.6,0.6-0.8,1.3-0.8,2.2c0,0.6,0.1,1.1,0.4,1.5c0.3,0.4,0.6,0.8,1.1,1.1
				c0.5,0.3,1,0.4,1.5,0.4c0.5,0,1-0.1,1.4-0.4c0.5-0.3,0.8-0.6,1.1-1.1c0.3-0.5,0.4-1,0.4-1.5c0-0.5-0.1-1-0.4-1.5
				c-0.3-0.5-0.6-0.8-1.1-1.1C31.8,68.8,31.3,68.6,30.8,68.6"/>
			<rect x="36.7" y="65" fill="#001588" width="1" height="10.3"/>
			<path fill="#001588" d="M40.3,64.8c0.2,0,0.4,0.1,0.6,0.2c0.2,0.2,0.2,0.3,0.2,0.6c0,0.2-0.1,0.4-0.2,0.6
				c-0.2,0.2-0.3,0.2-0.6,0.2c-0.2,0-0.4-0.1-0.6-0.2c-0.2-0.2-0.2-0.3-0.2-0.6c0-0.2,0.1-0.4,0.2-0.6
				C39.9,64.9,40.1,64.8,40.3,64.8 M39.8,67.9h1v7.4h-1V67.9z"/>
			<path fill="#001588" d="M46.2,65V66c-0.4-0.2-0.7-0.2-0.9-0.2c-0.2,0-0.3,0-0.5,0.1c-0.1,0.1-0.2,0.2-0.2,0.3c0,0.1,0,0.4,0,0.8
				l0,1h1.6v0.8h-1.6l0,6.6h-1v-6.6h-1v-0.8h1v-1.2c0-0.5,0-0.9,0.1-1.1c0.1-0.2,0.3-0.4,0.5-0.6c0.2-0.1,0.5-0.2,0.9-0.2
				C45.4,64.8,45.8,64.9,46.2,65"/>
			<polygon fill="#001588" points="47.1,67.9 48.1,67.9 50.7,73.6 53.1,67.9 54.2,67.9 49.7,78.1 48.7,78.1 50.1,74.8 			"/>
			<path fill="#001588" d="M56.1,64.8c0.2,0,0.4,0.1,0.6,0.2c0.2,0.2,0.2,0.3,0.2,0.6c0,0.2-0.1,0.4-0.2,0.6
				c-0.2,0.2-0.3,0.2-0.6,0.2c-0.2,0-0.4-0.1-0.6-0.2c-0.2-0.2-0.2-0.3-0.2-0.6c0-0.2,0.1-0.4,0.2-0.6
				C55.7,64.9,55.9,64.8,56.1,64.8 M55.6,67.9h1v7.4h-1V67.9z"/>
			<path fill="#001588" d="M58.9,67.9h1v1.3c0.4-0.5,0.8-0.9,1.3-1.1c0.5-0.3,1-0.4,1.5-0.4c0.6,0,1,0.1,1.5,0.4
				c0.4,0.3,0.7,0.7,1,1.1c0.2,0.5,0.3,1.2,0.3,2.2v3.8h-1v-3.5c0-0.9,0-1.4-0.1-1.7c-0.1-0.5-0.3-0.9-0.6-1.1
				c-0.3-0.2-0.7-0.4-1.2-0.4c-0.6,0-1.1,0.2-1.6,0.6c-0.5,0.4-0.8,0.9-0.9,1.4c-0.1,0.4-0.1,1-0.1,2v2.7h-1V67.9z"/>
			<path fill="#001588" d="M74.2,67.9h1v5.9c0,1-0.1,1.8-0.3,2.3c-0.3,0.7-0.7,1.2-1.3,1.6c-0.6,0.4-1.4,0.6-2.2,0.6
				c-0.6,0-1.2-0.1-1.7-0.3c-0.5-0.2-0.9-0.4-1.2-0.7c-0.3-0.3-0.6-0.7-0.9-1.3h1c0.3,0.5,0.6,0.9,1.1,1.1c0.4,0.2,1,0.4,1.7,0.4
				c0.7,0,1.2-0.1,1.7-0.4c0.4-0.2,0.8-0.5,1-0.9c0.2-0.4,0.3-1,0.3-1.8v-0.4c-0.4,0.5-0.8,0.8-1.3,1c-0.5,0.2-1.1,0.4-1.7,0.4
				c-0.7,0-1.3-0.2-1.9-0.5s-1.1-0.8-1.4-1.4c-0.3-0.6-0.5-1.2-0.5-1.9c0-0.7,0.2-1.3,0.5-1.9c0.3-0.6,0.8-1.1,1.4-1.4
				c0.6-0.3,1.2-0.5,1.9-0.5c0.6,0,1.1,0.1,1.6,0.3c0.5,0.2,0.9,0.6,1.4,1.1V67.9z M71.4,68.6c-0.5,0-1,0.1-1.5,0.4
				c-0.5,0.3-0.8,0.6-1.1,1.1c-0.3,0.5-0.4,1-0.4,1.5c0,0.8,0.3,1.5,0.8,2c0.5,0.5,1.3,0.8,2.1,0.8c0.9,0,1.6-0.3,2.1-0.8
				c0.5-0.5,0.8-1.2,0.8-2.1c0-0.6-0.1-1.1-0.4-1.5c-0.2-0.4-0.6-0.8-1-1C72.4,68.8,71.9,68.6,71.4,68.6"/>
			<path fill="#001588" d="M81.8,75.3V65h1v4.1c0.4-0.5,0.8-0.9,1.3-1.1c0.5-0.2,1-0.4,1.6-0.4c1.1,0,2,0.4,2.7,1.1
				c0.7,0.8,1.1,1.7,1.1,2.8c0,1.1-0.4,2-1.1,2.8c-0.8,0.8-1.7,1.1-2.7,1.1c-0.6,0-1.2-0.1-1.6-0.4c-0.5-0.3-0.9-0.6-1.3-1.2v1.4
				H81.8z M85.7,74.6c0.5,0,1-0.1,1.5-0.4c0.4-0.3,0.8-0.6,1.1-1.1c0.3-0.5,0.4-1,0.4-1.5c0-0.5-0.1-1-0.4-1.5
				c-0.3-0.5-0.6-0.9-1.1-1.1c-0.5-0.3-0.9-0.4-1.4-0.4c-0.5,0-1,0.1-1.5,0.4c-0.5,0.3-0.8,0.6-1.1,1.1c-0.3,0.5-0.4,1-0.4,1.5
				c0,0.9,0.3,1.6,0.8,2.2C84.1,74.3,84.8,74.6,85.7,74.6"/>
			<path fill="#001588" d="M91.6,67.9h1v3.5c0,0.8,0,1.4,0.1,1.8c0.1,0.5,0.4,0.8,0.8,1.1c0.4,0.3,0.8,0.4,1.4,0.4
				c0.5,0,1-0.1,1.4-0.4c0.4-0.3,0.6-0.6,0.8-1c0.1-0.3,0.1-0.9,0.1-1.8v-3.5h1v3.7c0,1-0.1,1.8-0.4,2.3c-0.2,0.5-0.6,0.9-1.1,1.2
				c-0.5,0.3-1.1,0.4-1.8,0.4c-0.7,0-1.3-0.1-1.8-0.4c-0.5-0.3-0.8-0.7-1.1-1.2c-0.2-0.5-0.4-1.3-0.4-2.4V67.9z"/>
			<path fill="#001588" d="M104.3,68.7l-0.6,0.6c-0.5-0.5-1-0.7-1.5-0.7c-0.3,0-0.6,0.1-0.8,0.3s-0.3,0.4-0.3,0.7
				c0,0.2,0.1,0.5,0.3,0.7c0.2,0.2,0.6,0.5,1.2,0.8c0.7,0.4,1.2,0.7,1.5,1.1c0.3,0.3,0.4,0.7,0.4,1.2c0,0.6-0.2,1.1-0.6,1.6
				c-0.4,0.4-1,0.6-1.6,0.6c-0.4,0-0.8-0.1-1.2-0.3c-0.4-0.2-0.7-0.4-1-0.8l0.6-0.7c0.5,0.6,1,0.8,1.6,0.8c0.4,0,0.7-0.1,1-0.4
				c0.3-0.2,0.4-0.5,0.4-0.9c0-0.3-0.1-0.5-0.3-0.7c-0.2-0.2-0.6-0.5-1.2-0.8c-0.7-0.3-1.1-0.7-1.4-1c-0.2-0.3-0.4-0.7-0.4-1.2
				c0-0.6,0.2-1,0.6-1.4c0.4-0.4,0.9-0.6,1.5-0.6C102.9,67.7,103.6,68,104.3,68.7"/>
			<path fill="#001588" d="M106.7,64.8c0.2,0,0.4,0.1,0.6,0.2c0.2,0.2,0.2,0.3,0.2,0.6c0,0.2-0.1,0.4-0.2,0.6
				c-0.2,0.2-0.3,0.2-0.6,0.2c-0.2,0-0.4-0.1-0.6-0.2c-0.2-0.2-0.2-0.3-0.2-0.6c0-0.2,0.1-0.4,0.2-0.6
				C106.3,64.9,106.4,64.8,106.7,64.8 M106.2,67.9h1v7.4h-1V67.9z"/>
			<path fill="#001588" d="M109.5,67.9h1v1.3c0.4-0.5,0.8-0.9,1.3-1.1c0.5-0.3,1-0.4,1.5-0.4c0.6,0,1,0.1,1.5,0.4
				c0.4,0.3,0.7,0.7,1,1.1c0.2,0.5,0.3,1.2,0.3,2.2v3.8h-1v-3.5c0-0.9,0-1.4-0.1-1.7c-0.1-0.5-0.3-0.9-0.6-1.1
				c-0.3-0.2-0.7-0.4-1.2-0.4c-0.6,0-1.1,0.2-1.6,0.6c-0.5,0.4-0.8,0.9-0.9,1.4c-0.1,0.4-0.1,1-0.1,2v2.7h-1V67.9z"/>
			<path fill="#001588" d="M124.6,72.9l0.8,0.4c-0.3,0.5-0.6,0.9-0.9,1.3c-0.3,0.3-0.7,0.6-1.2,0.7c-0.4,0.2-0.9,0.2-1.5,0.2
				c-1.2,0-2.2-0.4-2.8-1.2c-0.7-0.8-1-1.7-1-2.7c0-0.9,0.3-1.8,0.9-2.5c0.7-0.9,1.7-1.4,2.9-1.4c1.3,0,2.3,0.5,3,1.4
				c0.5,0.7,0.8,1.5,0.8,2.5H119c0,0.9,0.3,1.6,0.8,2.1c0.5,0.6,1.2,0.8,2,0.8c0.4,0,0.7-0.1,1.1-0.2c0.4-0.1,0.7-0.3,0.9-0.5
				C124.1,73.7,124.3,73.4,124.6,72.9 M124.6,70.9c-0.1-0.5-0.3-0.9-0.6-1.2c-0.2-0.3-0.6-0.6-1-0.7c-0.4-0.2-0.8-0.3-1.3-0.3
				c-0.7,0-1.4,0.2-1.9,0.7c-0.4,0.3-0.7,0.9-0.9,1.5H124.6z"/>
			<path fill="#001588" d="M131.6,68.7l-0.6,0.6c-0.5-0.5-1-0.7-1.5-0.7c-0.3,0-0.6,0.1-0.8,0.3c-0.2,0.2-0.3,0.4-0.3,0.7
				c0,0.2,0.1,0.5,0.3,0.7c0.2,0.2,0.6,0.5,1.2,0.8c0.7,0.4,1.2,0.7,1.5,1.1c0.3,0.3,0.4,0.7,0.4,1.2c0,0.6-0.2,1.1-0.6,1.6
				c-0.4,0.4-1,0.6-1.6,0.6c-0.4,0-0.8-0.1-1.2-0.3c-0.4-0.2-0.7-0.4-1-0.8l0.6-0.7c0.5,0.6,1,0.8,1.6,0.8c0.4,0,0.7-0.1,1-0.4
				c0.3-0.2,0.4-0.5,0.4-0.9c0-0.3-0.1-0.5-0.3-0.7c-0.2-0.2-0.6-0.5-1.2-0.8c-0.7-0.3-1.1-0.7-1.4-1c-0.2-0.3-0.4-0.7-0.4-1.2
				c0-0.6,0.2-1,0.6-1.4c0.4-0.4,0.9-0.6,1.5-0.6C130.2,67.7,130.9,68,131.6,68.7"/>
			<path fill="#001588" d="M137.3,68.7l-0.6,0.6c-0.5-0.5-1-0.7-1.5-0.7c-0.3,0-0.6,0.1-0.8,0.3c-0.2,0.2-0.3,0.4-0.3,0.7
				c0,0.2,0.1,0.5,0.3,0.7c0.2,0.2,0.6,0.5,1.2,0.8c0.7,0.4,1.2,0.7,1.5,1.1c0.3,0.3,0.4,0.7,0.4,1.2c0,0.6-0.2,1.1-0.6,1.6
				c-0.4,0.4-1,0.6-1.6,0.6c-0.4,0-0.8-0.1-1.2-0.3c-0.4-0.2-0.7-0.4-1-0.8l0.6-0.7c0.5,0.6,1,0.8,1.6,0.8c0.4,0,0.7-0.1,1-0.4
				c0.3-0.2,0.4-0.5,0.4-0.9c0-0.3-0.1-0.5-0.3-0.7c-0.2-0.2-0.6-0.5-1.2-0.8c-0.7-0.3-1.1-0.7-1.4-1c-0.2-0.3-0.4-0.7-0.4-1.2
				c0-0.6,0.2-1,0.6-1.4c0.4-0.4,0.9-0.6,1.5-0.6C136,67.7,136.6,68,137.3,68.7"/>
			<polygon fill="#001588" points="140.8,65.7 140.8,65.3 142.6,65.3 142.6,65.7 141.9,65.7 141.9,68.7 141.6,68.7 141.6,65.7 			
				"/>
			<polygon fill="#001588" points="143.1,68.7 143.6,65.3 143.6,65.3 145,68.1 146.3,65.3 146.4,65.3 146.9,68.7 146.5,68.7 
				146.2,66.3 145,68.7 144.9,68.7 143.7,66.3 143.4,68.7 			"/>
			<path fill="#001588" d="M19.5,23.2H10v19.1c0,2.9,0.1,4.9,0.4,5.9c0.3,1,0.8,1.8,1.6,2.5c0.8,0.6,1.7,0.9,2.7,0.9
				c1.8,0,3.4-1.1,4.8-3.2l1.2,0.7c-0.8,1.7-2,3-3.5,3.8c-1.5,0.9-3.1,1.3-4.7,1.3c-1.8,0-3.5-0.5-4.8-1.6c-1.4-1.1-2.3-2.4-2.6-3.8
				c-0.3-1.5-0.5-4-0.5-7.7V23.2H0v-1.8c2.1-0.1,4-0.9,5.6-2.7c1.7-1.7,2.7-4.1,3.2-7.3H10v9.9h9.5V23.2z"/>
			<path fill="#001588" d="M52.2,32.2H30.3c-0.1,1.5-0.2,2.6-0.2,3.4c0,5.6,0.9,9.7,2.6,12.5c1.7,2.8,4.3,4.2,7.7,4.2
				c4.7,0,8-2.1,9.9-6.3h1.8c-0.8,2.6-2.4,4.7-4.9,6.2c-2.4,1.5-5.1,2.2-7.9,2.2c-2.7,0-5.2-0.7-7.5-2c-2.4-1.4-4.3-3.3-5.8-5.7
				c-1.5-2.5-2.3-5.5-2.3-9c0-5,1.5-9.2,4.4-12.5c2.9-3.3,6.6-5,10.9-5c4.1,0,7.3,1.3,9.6,3.8C50.9,26.5,52.1,29.3,52.2,32.2
				 M45.5,30.6c0.1-0.6,0.1-1.1,0.1-1.6c0-2.3-0.7-4-2-5.3c-1.3-1.2-2.9-1.9-4.9-1.9c-4.7,0-7.4,2.9-8.3,8.7H45.5z"/>
			<path fill="#001588" d="M67.2,0v42.3c0,3.4,0,5.5,0.1,6.4c0.1,0.9,0.5,1.5,1.1,2c0.6,0.5,1.8,0.7,3.4,0.7h0.9v1.8H56v-1.8H57
				c1.5,0,2.6-0.2,3.3-0.6c0.7-0.4,1-1,1.2-1.8c0.1-0.8,0.2-3,0.2-6.6V11c0-3.3-0.3-5.4-0.9-6.3c-0.6-0.9-2-1.3-4.3-1.3V1.6
				c1.6,0,3.4-0.2,5.5-0.5c2.1-0.4,3.5-0.7,4.3-1.1H67.2z"/>
			<path fill="#001588" d="M108.6,47.3h1.4c-0.2,4.4-2.4,6.6-6.4,6.6c-1.7,0-3.1-0.5-4.1-1.4c-1-0.9-1.7-2.3-2-4.1
				c-2.6,1.8-4.9,3.2-7,4.1c-2.1,0.9-4,1.4-5.7,1.4c-2.1,0-4-0.6-5.5-1.9c-1.5-1.2-2.3-2.9-2.3-4.9c0-2.7,1.3-5,3.9-7
				c2.6-2,6.1-3.9,10.7-5.8l6-2.4v-1.5c0-2.2-0.1-3.8-0.4-4.8c-0.3-1-1-1.9-2.2-2.6c-1.2-0.8-2.7-1.2-4.7-1.2c-3.8,0-6,1.3-6.4,3.9
				c-0.4,2.6-1.5,3.9-3.2,3.9c-1.6,0-2.3-0.7-2.3-2.2c0-1.5,1-3,3.1-4.7c2.1-1.7,5.3-2.5,9.7-2.5c3.2,0,5.8,0.5,7.6,1.5
				c1.8,1,3,2.2,3.5,3.5c0.6,1.3,0.9,3.3,0.9,6v12.8c0,3,0.2,4.9,0.5,5.8c0.3,0.8,1,1.3,2,1.3C107.1,51.1,108.2,49.9,108.6,47.3
				 M97.5,33.8l-4.2,1.7c-6.6,2.7-9.9,6.1-9.9,10.2c0,1.6,0.4,2.9,1.3,3.9c0.8,1,1.9,1.5,3.3,1.5c1.2,0,2.6-0.4,4.2-1.2
				c1.6-0.8,3.4-2,5.3-3.6V33.8z"/>
			<path fill="#001588" d="M121.8,20.2h0.4c0.7,1.7,1.1,3.9,1.1,6.6c1.7-2.2,3.6-3.9,5.5-5c2-1.1,4.1-1.7,6.4-1.7
				c2.6,0,4.7,0.6,6.3,1.8c1.6,1.2,2.7,3,3.4,5.3c1.9-2.4,3.9-4.1,6-5.3c2-1.2,4.1-1.8,6.2-1.8c2.4,0,4.5,0.6,6.2,1.7
				c1.7,1.1,2.7,2.4,3.1,3.9c0.4,1.4,0.5,3.8,0.5,7v9.5c0,3.7,0.1,5.9,0.2,6.7c0.1,0.8,0.5,1.4,1.2,1.8c0.7,0.4,1.9,0.6,3.8,0.6v1.8
				h-15.7v-1.8c1.7,0,2.8-0.2,3.5-0.6c0.7-0.4,1.1-0.9,1.2-1.7c0.2-0.8,0.2-3,0.2-6.8V31.7c0-2.1-0.1-3.8-0.4-4.8
				c-0.2-1.1-0.9-2-1.9-2.8c-1-0.8-2.4-1.2-4-1.2c-1.7,0-3.3,0.6-5,1.7c-1.7,1.1-3.4,2.9-5,5.2v12.5c0,3.4,0,5.5,0.1,6.4
				c0.1,0.9,0.4,1.5,1.1,2c0.6,0.5,1.7,0.7,3.4,0.7v1.8h-15.1v-1.8c1.7,0,2.9-0.2,3.6-0.5c0.7-0.4,1.1-0.9,1.3-1.7
				c0.2-0.7,0.2-3,0.2-6.9v-8.8c0-2.8-0.1-4.8-0.3-6c-0.2-1.2-0.9-2.3-2-3.2c-1.1-0.9-2.5-1.3-4.1-1.3c-1.6,0-3.2,0.5-4.8,1.5
				c-1.6,1-3.3,2.6-5,4.6v13.2c0,3.5,0,5.6,0.2,6.5c0.1,0.9,0.5,1.5,1.2,1.9c0.7,0.4,1.9,0.7,3.6,0.7v1.8h-15.3v-1.8
				c1.7,0,2.8-0.2,3.5-0.6c0.7-0.4,1.1-0.9,1.2-1.7c0.2-0.7,0.2-3,0.2-6.8v-9.5c0-3.6-0.1-5.8-0.2-6.6c-0.1-0.8-0.5-1.4-1.2-1.8
				c-0.7-0.4-1.9-0.6-3.6-0.6v-1.8C116.4,21.6,119.4,21,121.8,20.2"/>
			<path fill="#001588" d="M176.7,37.2c0-4.8,1.6-8.9,4.8-12.2c3.2-3.3,7.2-4.9,11.9-4.9c4.7,0,8.7,1.6,11.9,4.9
				c3.2,3.3,4.8,7.3,4.8,12.1c0,5.3-1.6,9.5-4.9,12.6c-3.3,3.1-7.2,4.6-11.8,4.6c-4.6,0-8.6-1.6-11.8-4.7
				C178.3,46.6,176.7,42.5,176.7,37.2 M183,37.4c0,5.6,0.9,9.5,2.7,11.8c1.8,2.3,4.4,3.4,7.6,3.4c3.3,0,5.9-1.1,7.7-3.4
				c1.8-2.3,2.7-6.2,2.7-11.8c0-5.6-0.9-9.5-2.6-11.9c-1.8-2.4-4.3-3.6-7.7-3.6c-3.3,0-5.9,1.2-7.7,3.5
				C183.9,27.9,183,31.9,183,37.4"/>
			<path fill="#001588" d="M223.8,20.2h1c0.6,1.6,0.9,3.8,1,6.5c1.8-2.2,3.8-3.8,5.8-4.9c2-1.1,4.1-1.6,6.3-1.6
				c2.5,0,4.5,0.5,6.1,1.6c1.6,1.1,2.6,2.4,3.1,3.9c0.5,1.5,0.7,3.8,0.7,6.7v9.9c0,3.7,0.1,5.9,0.2,6.7c0.1,0.8,0.5,1.4,1.2,1.8
				c0.7,0.4,1.9,0.6,3.7,0.6v1.8h-16v-1.8h0.7c1.8,0,3-0.3,3.6-0.8c0.6-0.5,0.9-1.2,1-1.9c0.1-0.7,0.1-2.8,0.1-6.4V32.1
				c0-2.5-0.1-4.3-0.4-5.4c-0.2-1.1-0.9-2-2-2.8c-1.1-0.8-2.4-1.2-4-1.2c-1.9,0-3.6,0.6-5.3,1.7c-1.7,1.1-3.3,2.8-4.8,5v12.9
				c0,3.7,0.1,5.9,0.2,6.7c0.1,0.8,0.5,1.4,1.2,1.8c0.7,0.4,1.9,0.6,3.8,0.6v1.8h-15.9v-1.8c1.8,0,3-0.2,3.7-0.5
				c0.7-0.4,1.1-0.9,1.3-1.6c0.2-0.7,0.2-3,0.2-6.9v-9.4c0-3.7-0.1-5.9-0.2-6.7c-0.1-0.8-0.5-1.4-1.2-1.8c-0.7-0.4-1.9-0.6-3.8-0.6
				v-1.8C218,21.6,220.9,21.1,223.8,20.2"/>
			<path fill="#001588" d="M287.3,52.3c0,0.8-0.6,1.4-1.4,1.4c-0.8,0-1.4-0.6-1.4-1.4V28.3c0-0.8,0.6-1.4,1.4-1.4
				c0.8,0,1.4,0.6,1.4,1.4V52.3z"/>
			<path fill="#001588" d="M297.3,52.3c0,0.8-0.6,1.4-1.4,1.4c-0.8,0-1.4-0.6-1.4-1.4V28.3c0-0.8,0.6-1.4,1.4-1.4
				c0.8,0,1.4,0.6,1.4,1.4V52.3z"/>
			<path fill="#001588" d="M290.6,49.3c0,0.6-0.5,1-1,1c-0.6,0-1-0.5-1-1V30.9c0-0.6,0.5-1,1-1c0.6,0,1,0.5,1,1V49.3z"/>
			<path fill="#001588" d="M293.6,49.3c0,0.6-0.5,1-1,1c-0.6,0-1-0.5-1-1V30.9c0-0.6,0.5-1,1-1c0.6,0,1,0.5,1,1V49.3z"/>
			<path fill="#EB1C23" d="M264.1,16.3c0,0,7.3-3.1,16.9-3.4c3.4-0.1,7.7,0.2,11,1.3c6.1,2,10.3,5.2,8.7,4.9
				c-2.4-0.5-15.5-3-25.2,2.1c-1.8,0.9-3.2,2-4.7,2.5c-6.8,2.2-11.4,0-11.8-2.5C258.6,18,264.1,16.3,264.1,16.3"/>
			<path fill="none" stroke="#EC1D24" stroke-width="0.576" d="M264.1,16.3c0,0,7.3-3.1,16.9-3.4c3.4-0.1,7.7,0.2,11,1.3
				c6.1,2,10.3,5.2,8.7,4.9c-2.4-0.5-15.5-3-25.2,2.1c-1.8,0.9-3.2,2-4.7,2.5c-6.8,2.2-11.4,0-11.8-2.5
				C258.6,18,264.1,16.3,264.1,16.3z"/>
			<path fill="#05AE4B" d="M317.5,22.8c0,0-6.8,3.5-16.4,3.8c-3.4,0.1-9.2,0-12.6-1c-6.1-2-11.4-5.5-9.8-5.2
				c1.3,0.3,5.8,0.7,11.1,0.5c4.8-0.2,10.3-0.9,14.8-3.2c2.6-1.3,3.7-2.3,5.1-3c6.4-3.1,11.4,0,11.8,2.5
				C322.1,20.4,317.5,22.8,317.5,22.8"/>
			<path fill="#001588" d="M260.7,55.8c-0.5,0-0.9-0.1-1.3-0.3c-0.4-0.2-0.8-0.4-1.1-0.8c-0.3-0.3-0.5-0.6-0.6-1
				c-0.1-0.4-0.2-0.8-0.2-1.1c0-0.4,0.1-0.8,0.2-1.1c0.1-0.4,0.3-0.7,0.6-1c0.3-0.3,0.7-0.6,1.1-0.8c0.4-0.2,0.9-0.3,1.3-0.3
				c0.5,0,0.9,0.1,1.3,0.3c0.4,0.2,0.8,0.4,1.1,0.8c0.3,0.3,0.5,0.6,0.6,1c0.1,0.4,0.2,0.8,0.2,1.1c0,0.4-0.1,0.8-0.2,1.1
				c-0.1,0.4-0.3,0.7-0.6,1c-0.3,0.3-0.7,0.6-1.1,0.8C261.6,55.7,261.2,55.8,260.7,55.8 M260.7,55.5c0.3,0,0.7-0.1,1-0.2
				c0.3-0.1,0.6-0.3,0.9-0.5c0.3-0.3,0.5-0.6,0.7-1c0.2-0.4,0.2-0.8,0.2-1.2c0-0.4-0.1-0.8-0.2-1.2c-0.2-0.4-0.4-0.7-0.7-1
				c-0.3-0.2-0.6-0.4-0.9-0.5c-0.3-0.1-0.7-0.2-1-0.2c-0.4,0-0.7,0.1-1,0.2c-0.3,0.1-0.6,0.3-0.9,0.5c-0.3,0.3-0.5,0.6-0.7,1
				c-0.2,0.4-0.2,0.8-0.2,1.2c0,0.4,0.1,0.8,0.2,1.2c0.2,0.4,0.4,0.7,0.7,1c0.2,0.2,0.5,0.4,0.9,0.5C260,55.4,260.4,55.5,260.7,55.5
				 M260.3,52.7v0.9c0,0.2,0,0.3,0,0.4c0,0.1,0.1,0.1,0.1,0.2c0.1,0.1,0.2,0.1,0.4,0.1v0.1h-1.7v-0.1c0.2,0,0.3-0.1,0.4-0.1
				c0.1-0.1,0.1-0.1,0.1-0.2c0-0.1,0-0.2,0-0.4v-1.9c0-0.2,0-0.3,0-0.4c0-0.1-0.1-0.1-0.1-0.2c-0.1-0.1-0.2-0.1-0.4-0.1v-0.1h1.3
				c0.3,0,0.5,0,0.7,0c0.1,0,0.3,0,0.4,0.1c0.2,0.1,0.3,0.2,0.4,0.3c0.1,0.1,0.1,0.3,0.1,0.5c0,0.2-0.1,0.4-0.2,0.5
				c-0.1,0.1-0.3,0.2-0.6,0.3c0.1,0,0.2,0.1,0.2,0.2c0,0.1,0.1,0.2,0.2,0.4c0.3,0.5,0.5,0.9,0.5,1c0,0.1,0.1,0.1,0.1,0.1
				c0,0,0.1,0,0.2,0v0.1h-0.9c0-0.1-0.1-0.2-0.1-0.2l-0.2-0.4c-0.2-0.5-0.5-0.9-0.6-1c-0.1-0.1-0.2-0.1-0.3-0.1H260.3z M260.3,52.6
				L260.3,52.6c0.3,0,0.4,0,0.5,0c0.1,0,0.2-0.1,0.2-0.1c0.2-0.2,0.3-0.4,0.3-0.6c0-0.1,0-0.3-0.1-0.4c0-0.1-0.1-0.2-0.2-0.3
				c-0.1-0.1-0.2-0.1-0.3-0.1c-0.1,0-0.2,0-0.4,0h-0.1V52.6z"/>
			<path fill="#001588" d="M306.8,56.6c-0.5,0-0.9-0.1-1.3-0.3c-0.4-0.2-0.8-0.4-1.1-0.8c-0.3-0.3-0.5-0.6-0.6-1
				c-0.1-0.4-0.2-0.8-0.2-1.1c0-0.4,0.1-0.8,0.2-1.1c0.1-0.4,0.3-0.7,0.6-1c0.3-0.3,0.7-0.6,1.1-0.8c0.4-0.2,0.9-0.3,1.3-0.3
				c0.5,0,0.9,0.1,1.3,0.3c0.4,0.2,0.8,0.4,1.1,0.8c0.3,0.3,0.5,0.6,0.6,1c0.1,0.4,0.2,0.8,0.2,1.1c0,0.4-0.1,0.8-0.2,1.1
				c-0.1,0.4-0.3,0.7-0.6,1c-0.3,0.3-0.7,0.6-1.1,0.8C307.6,56.5,307.2,56.6,306.8,56.6 M306.8,56.3c0.3,0,0.7-0.1,1-0.2
				c0.3-0.1,0.6-0.3,0.9-0.5c0.3-0.3,0.5-0.6,0.7-1c0.2-0.4,0.2-0.8,0.2-1.2c0-0.4-0.1-0.8-0.2-1.2c-0.2-0.4-0.4-0.7-0.7-1
				c-0.3-0.2-0.6-0.4-0.9-0.5c-0.3-0.1-0.7-0.2-1-0.2c-0.4,0-0.7,0.1-1,0.2c-0.3,0.1-0.6,0.3-0.9,0.5c-0.3,0.3-0.5,0.6-0.7,1
				c-0.2,0.4-0.2,0.8-0.2,1.2c0,0.4,0.1,0.8,0.2,1.2c0.2,0.4,0.4,0.7,0.7,1c0.2,0.2,0.5,0.4,0.9,0.5
				C306.1,56.2,306.4,56.3,306.8,56.3 M306.3,53.4v0.9c0,0.2,0,0.3,0,0.4c0,0.1,0.1,0.1,0.1,0.2c0.1,0.1,0.2,0.1,0.4,0.1v0.1h-1.7
				V55c0.2,0,0.3-0.1,0.4-0.1c0.1-0.1,0.1-0.1,0.1-0.2c0-0.1,0-0.2,0-0.4v-1.9c0-0.2,0-0.3,0-0.4c0-0.1-0.1-0.1-0.1-0.2
				c-0.1-0.1-0.2-0.1-0.4-0.1v-0.1h1.3c0.3,0,0.5,0,0.7,0c0.1,0,0.3,0,0.4,0.1c0.2,0.1,0.3,0.2,0.4,0.3c0.1,0.1,0.1,0.3,0.1,0.5
				c0,0.2-0.1,0.4-0.2,0.5c-0.1,0.1-0.3,0.2-0.6,0.3c0.1,0,0.2,0.1,0.2,0.2c0,0.1,0.1,0.2,0.2,0.4c0.3,0.5,0.5,0.9,0.5,1
				c0,0.1,0.1,0.1,0.1,0.1c0,0,0.1,0,0.2,0v0.1h-0.9c0-0.1-0.1-0.2-0.1-0.2l-0.2-0.4c-0.2-0.5-0.5-0.9-0.6-1
				c-0.1-0.1-0.2-0.1-0.3-0.1H306.3z M306.3,53.4L306.3,53.4c0.3,0,0.4,0,0.5,0c0.1,0,0.2-0.1,0.2-0.1c0.2-0.2,0.3-0.4,0.3-0.6
				c0-0.1,0-0.3-0.1-0.4c0-0.1-0.1-0.2-0.2-0.3c-0.1-0.1-0.2-0.1-0.3-0.1c-0.1,0-0.2,0-0.4,0h-0.1V53.4z"/>
		</g>
	</g>
</g>
</svg>
